<?xml version="1.0" encoding="iso-8859-1"?>
<!-- Generator: Adobe Illustrator 19.0.0, SVG Export Plug-In . SVG Version: 6.00 Build 0)  -->
<svg version="1.1" id="Layer_1" xmlns="http://www.w3.org/2000/svg" xmlns:xlink="http://www.w3.org/1999/xlink" x="0px" y="0px"
	 viewBox="0 0 512 512" style="enable-background:new 0 0 512 512;" xml:space="preserve">
<g>
	<rect x="94.465" y="8.688" style="fill:#8DE0A8;" width="322.826" height="46.59"/>
	<rect x="94.465" y="456.734" style="fill:#8DE0A8;" width="322.826" height="46.59"/>
</g>
<g>
	<rect x="94.465" y="8.688" style="fill:#7BC690;" width="65.344" height="46.59"/>
	<rect x="94.465" y="456.734" style="fill:#7BC690;" width="65.344" height="46.59"/>
</g>
<path style="fill:#CFDCE5;" d="M125.326,456.728v-65.95c-0.775-66.267,47.83-121.329,111.314-130.702
	c-62.984-9.301-111.322-63.573-111.322-129.141V55.272h261.1v74.101c0.775,66.267-47.83,121.329-111.314,130.704
	c62.984,9.301,111.322,63.573,111.322,129.141v67.511H125.326z"/>
<path style="fill:#BAC6CC;" d="M272.55,260.075c-62.984-9.301-111.322-63.573-111.322-129.141V55.272h-35.91v75.662
	c0,65.568,48.339,119.842,111.322,129.141c-63.483,9.374-112.087,64.436-111.313,130.702v65.95h35.91v-65.95
	C160.462,324.512,209.066,269.45,272.55,260.075z"/>
<path style="fill:#FCD577;" d="M364.759,456.728c0-60.137-48.75-108.887-108.887-108.887s-108.887,48.75-108.887,108.887"/>
<path style="fill:#EAC36E;" d="M272.09,349.044c-5.291-0.79-10.706-1.204-16.217-1.204c-60.137,0-108.887,48.75-108.887,108.887
	h32.434C179.42,402.103,219.646,356.876,272.09,349.044z"/>
<polygon style="fill:#FCD577;" points="204.411,138.986 220.447,247.235 246.133,219.604 276.483,247.817 318.203,202.938 
	287.854,174.725 313.54,147.095 "/>
<path d="M417.413,63.959c4.799,0,8.688-3.89,8.688-8.688V8.688c0-4.798-3.889-8.688-8.688-8.688h-56.001
	c-4.799,0-8.688,3.89-8.688,8.688s3.889,8.688,8.688,8.688h47.314v29.208H103.275V17.376h229.178c4.799,0,8.688-3.89,8.688-8.688
	S337.252,0,332.453,0H94.587c-4.799,0-8.688,3.89-8.688,8.688v46.584c0,4.798,3.889,8.688,8.688,8.688h22.17v66.975
	c0,33.607,12.139,66.057,34.178,91.376c14.564,16.73,32.787,29.629,53.022,37.793c-28.816,11.704-53.506,32.98-69.097,60.415
	c-2.371,4.171-0.91,9.475,3.26,11.846c4.175,2.371,9.475,0.912,11.847-3.261c18.424-32.419,51.347-55.011,88.07-60.433
	c4.262-0.629,7.418-4.286,7.418-8.594s-3.158-7.965-7.418-8.594c-2.737-0.404-5.444-0.93-8.135-1.519l16.808-18.08l23.061,21.438
	c-1.981,1.603-3.226,4.051-3.226,6.756c0,4.308,3.158,7.965,7.418,8.594c28.616,4.226,54.896,18.637,73.997,40.58
	c19.286,22.155,29.907,50.555,29.907,79.967v58.823h-4.608c-2.09-28.982-14.616-55.743-35.81-76.106
	c-3.459-3.325-8.959-3.213-12.283,0.246c-3.325,3.46-3.214,8.96,0.246,12.283c17.747,17.052,28.341,39.373,30.396,63.576H156.182
	c4.418-51.197,47.496-91.511,99.818-91.511c16.865,0,33.535,4.266,48.211,12.338c4.205,2.312,9.486,0.777,11.799-3.426
	c2.312-4.204,0.78-9.487-3.425-11.799c-17.234-9.479-36.801-14.489-56.585-14.489c-61.908,0-112.792,48.098-117.253,108.887h-4.605
	v-57.364c-0.146-12.472,1.579-24.783,5.129-36.593c1.381-4.595-1.224-9.44-5.819-10.82c-4.6-1.38-9.44,1.224-10.822,5.82
	c-4.058,13.499-6.03,27.561-5.865,41.696v57.262h-22.18c-4.799,0-8.688,3.89-8.688,8.688v46.586c0,4.798,3.889,8.688,8.688,8.688
	h322.825c4.799,0,8.688-3.89,8.688-8.688v-46.584c0-4.798-3.889-8.688-8.688-8.688h-22.171v-58.823
	c0-33.605-12.139-66.057-34.178-91.376c-14.546-16.71-32.742-29.598-52.948-37.764c20.443-8.259,38.818-21.35,53.453-38.35
	c22.105-25.678,34.06-58.513,33.665-92.355V63.959L417.413,63.959L417.413,63.959z M408.725,494.624H103.275v-29.208h305.45v29.208
	H408.725z M287.723,248.624l36.971-39.77c3.267-3.514,3.066-9.011-0.448-12.279l-23.986-22.299l19.771-21.268
	c2.274-2.445,2.945-5.98,1.725-9.087c-1.221-3.109-4.115-5.244-7.445-5.492l-37.975-2.822c-4.799-0.36-8.953,3.235-9.308,8.021
	c-0.356,4.785,3.235,8.952,8.021,9.308l19.948,1.482l-13.379,14.392c-1.568,1.688-2.402,3.929-2.319,6.232
	c0.083,2.303,1.08,4.477,2.767,6.047l23.986,22.299l-29.889,32.153l-23.986-22.297c-3.513-3.268-9.011-3.066-12.279,0.448
	l-13.379,14.392l-11.797-79.626l30.369,2.257c4.79,0.359,8.953-3.235,9.308-8.021c0.356-4.785-3.235-8.952-8.021-9.308l-41.197-3.06
	c-2.618-0.192-5.209,0.816-7.007,2.749c-1.797,1.932-2.618,4.578-2.231,7.189l15.419,104.077
	c-18.071-7.124-34.354-18.537-47.323-33.435c-19.286-22.155-29.907-50.555-29.907-79.967V63.959h243.725v65.515
	C378.513,185.434,340.607,234.381,287.723,248.624z"/>
<circle cx="306.968" cy="407.167" r="8.688"/>
<circle cx="293.068" cy="430.335" r="8.688"/>
<circle cx="319.907" cy="429.176" r="8.688"/>
<g>
</g>
<g>
</g>
<g>
</g>
<g>
</g>
<g>
</g>
<g>
</g>
<g>
</g>
<g>
</g>
<g>
</g>
<g>
</g>
<g>
</g>
<g>
</g>
<g>
</g>
<g>
</g>
<g>
</g>
</svg>
