<?xml version="1.0" standalone="no"?>
<!DOCTYPE svg PUBLIC "-//W3C//DTD SVG 20010904//EN"
 "http://www.w3.org/TR/2001/REC-SVG-20010904/DTD/svg10.dtd">
<svg version="1.0" xmlns="http://www.w3.org/2000/svg"
 width="941.000000pt" height="941.000000pt" viewBox="0 0 941.000000 941.000000"
 preserveAspectRatio="xMidYMid meet">
<metadata>
Created by potrace 1.14, written by Peter Selinger 2001-2017
</metadata>
<g transform="translate(0.000000,941.000000) scale(0.100000,-0.100000)"
fill="#000000" stroke="none">
<path d="M9148 7448 c-43 -41 -87 -81 -245 -223 -37 -33 -89 -81 -116 -107
-27 -27 -51 -48 -53 -48 -3 0 -15 -10 -28 -22 -25 -26 -204 -190 -238 -220
-26 -23 -168 -151 -213 -193 -17 -16 -67 -62 -111 -102 -43 -39 -91 -82 -105
-95 -77 -71 -188 -170 -212 -190 l-28 -24 23 -12 c31 -16 259 -103 281 -107 9
-2 23 -7 30 -12 6 -4 14 -8 17 -8 3 0 27 -9 53 -19 36 -15 46 -23 42 -35 -4
-9 -7 -20 -8 -26 -1 -5 -4 -12 -7 -15 -3 -3 -18 -34 -35 -70 -16 -36 -54 -108
-84 -160 -30 -52 -59 -105 -65 -117 -6 -13 -14 -23 -18 -23 -5 0 -8 -5 -8 -10
0 -12 -101 -163 -112 -168 -5 -2 -8 -8 -8 -13 0 -11 -100 -142 -112 -147 -4
-2 -8 -8 -8 -14 0 -5 -6 -15 -12 -22 -7 -7 -29 -32 -48 -56 -19 -24 -40 -49
-47 -55 -7 -7 -9 -15 -6 -19 4 -3 0 -6 -8 -6 -8 0 -23 -14 -35 -30 -28 -40
-215 -240 -225 -240 -4 0 -19 33 -34 73 -15 39 -33 86 -41 102 -7 17 -53 136
-103 265 -49 129 -99 256 -110 283 -11 26 -20 48 -20 50 1 4 -12 37 -57 154
-24 61 -44 118 -44 127 0 9 -4 16 -10 16 -5 0 -10 6 -10 13 0 10 -35 105 -70
192 -5 11 -31 81 -60 155 -28 74 -56 145 -61 158 -23 56 -30 74 -72 187 -25
66 -48 129 -53 140 -4 11 -8 22 -9 25 -1 3 -7 16 -13 30 -6 14 -18 42 -26 63
-9 23 -22 37 -33 37 -27 1 -974 1 -1089 0 l-101 0 -16 -42 c-9 -24 -22 -56
-28 -73 -7 -16 -13 -32 -14 -35 -1 -3 -5 -12 -8 -20 -3 -8 -25 -64 -47 -125
-22 -60 -45 -119 -50 -130 -4 -11 -21 -54 -35 -95 -15 -41 -31 -84 -36 -95 -4
-11 -29 -76 -55 -145 -25 -69 -52 -138 -59 -155 -14 -34 -79 -207 -81 -215 0
-3 -4 -12 -7 -20 -4 -8 -43 -112 -87 -230 -82 -219 -96 -255 -124 -325 -8 -22
-63 -166 -121 -320 -58 -154 -109 -289 -114 -300 -5 -11 -28 -72 -52 -135 -60
-162 -108 -292 -116 -310 -3 -8 -7 -19 -9 -25 -1 -5 -8 -23 -15 -40 -7 -16
-13 -32 -14 -35 -1 -3 -5 -14 -9 -25 -68 -174 -128 -334 -131 -347 -2 -10 -10
-32 -19 -50 -8 -18 -35 -89 -61 -158 -26 -69 -73 -197 -106 -285 -33 -88 -64
-169 -69 -180 -6 -11 -23 -57 -39 -103 -31 -84 -48 -116 -66 -118 -5 0 -28 -6
-50 -12 -207 -60 -251 -73 -269 -76 -12 -2 -33 -7 -47 -11 -16 -4 -30 -2 -33
4 -4 6 -2 11 3 11 6 0 11 6 11 13 0 8 17 56 38 108 21 52 39 96 40 99 1 9 101
272 123 325 16 39 48 121 73 188 35 89 71 183 100 260 14 34 59 152 102 262
42 110 85 223 96 250 11 28 33 88 51 135 17 47 36 88 41 92 6 4 8 8 4 8 -4 0
2 21 13 48 12 26 22 54 24 62 4 16 249 652 264 685 21 46 81 211 81 223 0 6 4
12 8 12 4 0 14 21 22 48 7 26 21 65 30 87 22 52 33 79 34 85 2 6 25 69 37 95
33 78 56 145 51 149 -3 3 0 6 6 6 7 0 12 5 12 11 0 11 40 119 130 349 23 58
43 110 44 115 1 6 8 21 14 35 6 14 36 93 67 175 31 83 63 164 70 180 37 84 43
105 34 110 -7 5 -657 8 -1221 5 -112 0 -113 -1 -123 -50 -6 -30 -100 -308
-108 -317 -5 -7 -7 -13 -3 -13 3 0 0 -15 -7 -32 -13 -32 -17 -42 -22 -63 -1
-5 -17 -55 -35 -110 -18 -55 -33 -104 -35 -110 -1 -5 -7 -23 -13 -38 -7 -16
-12 -32 -12 -37 0 -4 -12 -41 -26 -82 -14 -40 -36 -109 -50 -153 -13 -44 -27
-87 -31 -95 -3 -8 -7 -20 -8 -26 -2 -6 -29 -90 -60 -185 -31 -96 -58 -178 -59
-184 -7 -28 -36 -117 -43 -128 -4 -6 -8 -18 -9 -25 -1 -7 -21 -70 -44 -140
-23 -70 -44 -134 -46 -142 -6 -24 -64 -202 -77 -235 -6 -16 -12 -34 -13 -40
-1 -5 -29 -93 -62 -195 -55 -170 -74 -227 -77 -240 -1 -3 -5 -12 -8 -20 -7
-17 -88 -269 -92 -284 -1 -6 -5 -18 -8 -26 -3 -8 -30 -87 -58 -175 -110 -340
-128 -390 -140 -390 -10 0 -42 91 -187 528 -2 8 -4 13 -6 25 -2 9 -76 232 -83
252 -3 8 -7 20 -8 25 -3 14 -68 208 -127 385 -27 80 -51 155 -54 167 -2 12 -9
35 -16 50 -6 16 -12 33 -13 38 -4 16 -103 319 -152 465 -25 74 -46 142 -48
150 -2 8 -4 15 -5 15 -1 0 -3 7 -5 15 -2 8 -45 139 -95 290 -50 151 -93 282
-95 290 -2 8 -33 103 -68 210 -101 303 -168 510 -172 529 -7 26 -31 90 -37 96
-4 5 -1017 9 -1307 5 -54 0 -56 13 27 -205 11 -27 50 -131 87 -230 37 -99 73
-193 81 -210 7 -16 50 -129 95 -250 45 -121 90 -239 100 -262 11 -23 19 -46
19 -52 0 -6 6 -25 14 -43 8 -18 24 -58 35 -88 11 -30 26 -68 32 -85 7 -16 13
-32 14 -35 1 -3 7 -18 13 -33 7 -16 12 -31 12 -35 0 -4 11 -34 24 -67 14 -33
43 -109 66 -170 81 -215 117 -311 160 -420 17 -44 33 -87 35 -95 5 -19 102
-276 119 -315 8 -16 26 -64 41 -105 14 -41 30 -84 35 -95 4 -11 22 -58 40
-105 17 -47 35 -94 40 -105 10 -25 57 -150 103 -275 34 -91 115 -303 132 -345
4 -11 9 -24 10 -30 3 -12 162 -432 174 -460 11 -23 23 -56 27 -70 3 -11 91
-242 101 -265 3 -8 7 -17 7 -20 2 -9 37 -105 47 -125 12 -27 31 -78 35 -90 2
-9 90 -240 109 -287 7 -17 45 -18 611 -18 l603 0 24 53 c20 44 36 84 42 107 1
3 7 19 14 35 7 17 18 47 24 68 7 20 15 37 19 37 5 0 8 7 8 15 0 17 78 216 89
227 4 4 44 10 89 13 82 5 133 9 245 21 31 3 57 4 57 2 0 -4 -12 -37 -113 -303
-42 -110 -83 -217 -92 -238 l-15 -37 682 2 682 3 78 240 c44 132 80 245 82
250 1 6 26 85 56 177 l55 167 55 16 c30 9 67 20 82 25 14 5 29 6 32 3 3 -4 6
-2 6 3 0 5 8 10 18 11 21 2 327 100 350 112 10 5 20 9 25 10 4 0 23 8 43 16
20 8 40 15 45 15 7 0 100 35 174 65 11 5 22 9 25 9 3 1 14 7 25 13 11 6 22 10
25 10 6 -2 163 65 170 73 3 3 12 6 20 8 8 2 53 22 100 45 47 22 88 40 93 39 4
-1 7 3 7 10 0 6 3 9 6 5 4 -3 30 6 58 22 130 71 216 114 220 110 3 -4 135
-403 140 -424 1 -5 24 -75 50 -154 27 -80 49 -150 50 -155 3 -17 28 -90 35
-101 3 -5 7 -16 8 -22 5 -20 10 -37 16 -53 13 -34 171 -526 171 -535 1 -7 234
-11 673 -13 l673 -2 -21 52 c-20 49 -102 261 -169 438 -16 41 -40 103 -54 138
-13 34 -22 62 -19 62 3 0 0 8 -8 18 -8 9 -21 35 -28 57 -18 55 -89 241 -112
292 -10 24 -19 47 -19 53 0 5 -7 24 -15 42 -8 18 -35 87 -60 153 -26 66 -60
156 -78 200 -17 44 -32 85 -33 90 -1 6 -25 67 -53 136 -28 70 -51 130 -51 134
0 4 -7 23 -16 43 -20 46 -26 62 -55 137 -12 33 -25 65 -29 70 -12 19 -5 31 49
79 172 153 373 359 491 506 25 30 48 57 51 60 4 3 50 64 103 135 54 72 106
141 116 154 11 13 17 28 14 32 -3 5 4 14 16 21 11 7 20 18 20 24 0 5 9 20 20
32 12 12 19 22 16 22 -3 0 20 39 50 88 30 48 57 97 60 109 3 12 12 24 20 27 8
3 14 14 14 25 0 11 3 21 8 23 8 3 63 114 61 124 0 4 3 10 8 13 11 8 66 122 66
139 0 6 3 12 7 12 7 0 44 85 45 102 1 24 41 15 162 -38 17 -8 34 -14 37 -14 5
0 158 -59 252 -97 12 -4 11 9 -1 117 -4 36 -9 79 -11 95 -2 17 -6 57 -9 90 -3
33 -7 80 -10 105 -3 25 -7 70 -10 100 -3 30 -7 74 -10 98 -3 23 -7 61 -10 85
-9 91 -16 153 -20 182 -2 17 -7 62 -10 100 -16 181 -25 273 -31 305 -2 14 -7
54 -10 90 -3 36 -7 79 -9 95 -2 17 -6 64 -9 105 -4 41 -9 85 -12 98 -2 12 -7
53 -10 91 -5 72 -11 111 -17 117 -2 2 -24 -15 -49 -38z m-3112 -2006 c0 -4 3
-14 7 -22 3 -8 20 -60 37 -115 17 -55 35 -109 40 -120 7 -18 73 -223 75 -235
1 -5 82 -254 231 -709 30 -91 54 -168 54 -173 0 -4 -19 -20 -42 -35 -24 -15
-45 -30 -48 -33 -5 -5 -131 -89 -230 -152 -45 -29 -175 -109 -240 -148 -40
-23 -298 -168 -322 -180 -16 -7 -28 -17 -28 -22 0 -4 -6 -8 -14 -8 -13 0 -180
-84 -203 -102 -18 -14 -22 13 -6 44 7 15 13 31 13 35 0 5 27 89 59 188 33 99
123 376 202 615 79 239 143 437 144 440 0 3 18 59 40 125 21 66 40 122 40 125
1 3 4 12 8 20 3 8 11 33 17 55 6 22 14 47 17 55 4 8 7 18 8 23 2 4 3 8 5 10 1
1 3 9 5 17 12 50 97 295 106 307 11 13 23 10 25 -5z"/>
</g>
</svg>
